<svg width="18" height="18" viewBox="0 0 18 18" fill="none" xmlns="http://www.w3.org/2000/svg">
<g opacity="0.8">
<path d="M10.98 2.61009C11.115 2.61009 11.25 2.61009 11.52 2.61009V4.63509C11.385 4.63509 11.115 4.63509 10.845 4.63509C10.575 4.63509 10.305 4.63509 10.17 4.77009C10.035 4.90509 10.035 5.04009 10.035 5.35509C10.035 5.62509 10.035 5.80509 10.035 6.07509H11.52V7.78509H10.035V15.2101H7.74003V7.74009H6.52502V6.03009H7.74003V5.44509C7.74003 4.45509 7.87503 3.73509 8.14503 3.42009C8.55003 2.83509 9.36002 2.56509 10.575 2.56509C10.71 2.61009 10.845 2.61009 10.98 2.61009Z" fill="#FBFBFB"/>
</g>
</svg>
