<svg width="18" height="18" viewBox="0 0 18 18" fill="none" xmlns="http://www.w3.org/2000/svg">
<g opacity="0.8">
<path d="M16.1537 6.05022C16.1449 5.44589 16.0329 4.84636 15.8186 4.28115C15.4436 3.31599 14.6799 2.5528 13.7132 2.17919C13.1542 1.96923 12.5633 1.85667 11.9651 1.8439C11.1959 1.80957 10.952 1.79999 8.99925 1.79999C7.04652 1.79999 6.79623 1.79999 6.03257 1.8439C5.43523 1.85667 4.8443 1.96923 4.28534 2.17919C3.31857 2.5528 2.55411 3.31599 2.17988 4.28115C1.96957 4.83917 1.85602 5.42913 1.84483 6.02547C1.81044 6.79425 1.80005 7.03773 1.80005 8.98722C1.80005 10.9367 1.80005 11.1858 1.84483 11.949C1.85682 12.5461 1.96957 13.1353 2.17988 13.6949C2.55491 14.6592 3.31857 15.4224 4.28614 15.796C4.8427 16.0132 5.43363 16.1361 6.03337 16.1553C6.80343 16.1896 7.04732 16.2 9.00005 16.2C10.9528 16.2 11.2031 16.2 11.9667 16.1553C12.5641 16.1433 13.155 16.0307 13.7148 15.8208C14.6815 15.4464 15.4452 14.6832 15.8202 13.7188C16.0305 13.16 16.1433 12.5709 16.1553 11.9729C16.1897 11.2049 16.2 10.9614 16.2 9.01117C16.1985 7.06168 16.1985 6.8142 16.1537 6.05022ZM8.99445 12.6738C6.95216 12.6738 5.29769 11.0221 5.29769 8.98322C5.29769 6.94433 6.95216 5.29262 8.99445 5.29262C11.0351 5.29262 12.6912 6.94433 12.6912 8.98322C12.6912 11.0221 11.0351 12.6738 8.99445 12.6738ZM12.8383 6.01669C12.361 6.01669 11.9763 5.6319 11.9763 5.1561C11.9763 4.68031 12.361 4.29552 12.8383 4.29552C13.3141 4.29552 13.6996 4.68031 13.6996 5.1561C13.6996 5.6319 13.3141 6.01669 12.8383 6.01669Z" fill="#FBFBFB"/>
<path d="M8.99554 11.2365C10.2394 11.2365 11.2478 10.2281 11.2478 8.98424C11.2478 7.74036 10.2394 6.73199 8.99554 6.73199C7.75165 6.73199 6.74329 7.74036 6.74329 8.98424C6.74329 10.2281 7.75165 11.2365 8.99554 11.2365Z" fill="#FBFBFB"/>
</g>
</svg>
