<svg width="18" height="18" viewBox="0 0 18 18" fill="none" xmlns="http://www.w3.org/2000/svg">
<g opacity="0.8">
<path fill-rule="evenodd" clip-rule="evenodd" d="M13.635 3.37491C12.87 3.32991 11.295 3.28491 8.91003 3.28491H8.59503C6.30003 3.28491 4.77005 3.32991 4.00505 3.41991C2.97005 3.50991 2.25003 3.77991 1.84503 4.13991C1.48503 4.45491 1.21504 5.03991 1.12504 5.80491C1.08004 6.29991 1.03503 7.33491 1.03503 8.90991V9.13491C1.03503 10.6199 1.08003 11.6549 1.17003 12.1499C1.30503 12.8699 1.53005 13.4099 1.98005 13.7249C2.43005 14.0849 3.19504 14.3099 4.27504 14.3999C5.04004 14.4449 6.61504 14.4899 9.00004 14.4899H9.31505C11.61 14.4899 13.14 14.4449 13.9051 14.3549C14.9401 14.2649 15.66 13.9949 16.065 13.6349C16.425 13.3199 16.695 12.7349 16.785 11.9699C16.83 11.4749 16.875 10.4399 16.875 8.86491V8.63991C16.875 7.15491 16.83 6.11991 16.74 5.62491C16.605 4.90491 16.3801 4.36491 15.93 4.04991C15.4801 3.68991 14.715 3.46491 13.635 3.37491ZM11.8801 8.90991L6.93005 11.8799V5.93991L11.8801 8.90991Z" fill="#FBFBFB"/>
</g>
</svg>
