<svg aria-hidden="true" style="position:absolute;width:0;height:0;overflow:hidden" xmlns="http://www.w3.org/2000/svg">
  <defs>
    <symbol id="face" viewBox="0 0 14 32">
      <path d="M11.383 1.394h1.234v4.629h-1.543c-.617 0-1.234 0-1.543.309-.309.309-.309.617-.309 1.337v1.646h3.394v3.909H9.222v16.971H3.976V13.121H1.199V9.212h2.777V7.875c0-2.263.309-3.909.926-4.629.926-1.337 2.777-1.954 5.554-1.954.309.103.617.103.926.103z"/>
    </symbol>
    <symbol id="insta" viewBox="0 0 32 32">
      <path d="M30.307 10.1a10.43 10.43 0 0 0-.67-3.538 7.365 7.365 0 0 0-4.211-4.204c-1.118-.42-2.3-.645-3.496-.671-1.538-.069-2.026-.088-5.932-.088s-4.406 0-5.933.088a10.58 10.58 0 0 0-3.494.671A7.362 7.362 0 0 0 2.36 6.562a10.43 10.43 0 0 0-.67 3.489c-.069 1.538-.09 2.025-.09 5.923s0 4.397.09 5.924c.024 1.194.25 2.373.67 3.492a7.362 7.362 0 0 0 4.213 4.202c1.113.434 2.295.68 3.494.718 1.54.069 2.028.089 5.933.089s4.406 0 5.933-.089a10.55 10.55 0 0 0 3.496-.669 7.377 7.377 0 0 0 4.211-4.204c.421-1.118.646-2.296.67-3.492.069-1.536.089-2.023.089-5.923-.003-3.899-.003-4.394-.093-5.922zM15.989 23.347c-4.085 0-7.394-3.304-7.394-7.381s3.309-7.381 7.394-7.381c4.081 0 7.393 3.303 7.393 7.381s-3.312 7.381-7.393 7.381zm7.688-13.314a1.72 1.72 0 1 1 0-3.442 1.721 1.721 0 1 1 0 3.442z"/>
    </symbol>
    <symbol id="yt" viewBox="0 0 43 32">
      <path d="M33.693 1c-2.04-.12-6.24-.24-12.6-.24h-.84c-6.12 0-10.2.12-12.24.36-2.76.24-4.68.96-5.76 1.92-.96.84-1.68 2.4-1.92 4.44-.12 1.32-.24 4.08-.24 8.28v.6c0 3.96.12 6.72.36 8.04.36 1.92.96 3.36 2.16 4.2 1.2.96 3.24 1.56 6.12 1.8 2.04.12 6.24.24 12.6.24h.84c6.12 0 10.2-.12 12.24-.36 2.76-.24 4.68-.96 5.76-1.92.96-.84 1.68-2.4 1.92-4.44.12-1.32.24-4.08.24-8.28v-.6c0-3.96-.12-6.72-.36-8.04-.36-1.92-.96-3.36-2.16-4.2-1.2-.96-3.24-1.56-6.12-1.8zm-4.68 14.76-13.2 7.92V7.84l13.2 7.92z"/>
    </symbol>
  </defs>
</svg>